<?xml version="1.0" encoding="UTF-8" standalone="no"?>
<!-- Created with Inkscape (http://www.inkscape.org/) -->

<svg
   xmlns:dc="http://purl.org/dc/elements/1.1/"
   xmlns:cc="http://creativecommons.org/ns#"
   xmlns:rdf="http://www.w3.org/1999/02/22-rdf-syntax-ns#"
   xmlns:svg="http://www.w3.org/2000/svg"
   xmlns="http://www.w3.org/2000/svg"
   xmlns:sodipodi="http://sodipodi.sourceforge.net/DTD/sodipodi-0.dtd"
   xmlns:inkscape="http://www.inkscape.org/namespaces/inkscape"
   width="297mm"
   height="210mm"
   viewBox="0 0 297 210"
   version="1.1"
   id="svg983"
   inkscape:version="0.92.2 5c3e80d, 2017-08-06"
   sodipodi:docname="ribbon.svg">
  <defs
     id="defs977" />
  <sodipodi:namedview
     id="base"
     pagecolor="#ffffff"
     bordercolor="#666666"
     borderopacity="1.0"
     inkscape:pageopacity="0.0"
     inkscape:pageshadow="2"
     inkscape:zoom="0.70710678"
     inkscape:cx="572.28283"
     inkscape:cy="360.86342"
     inkscape:document-units="mm"
     inkscape:current-layer="layer1"
     showgrid="false"
     inkscape:window-width="2048"
     inkscape:window-height="1030"
     inkscape:window-x="0"
     inkscape:window-y="1"
     inkscape:window-maximized="1"
     inkscape:object-nodes="false" />
  <metadata
     id="metadata980">
    <rdf:RDF>
      <cc:Work
         rdf:about="">
        <dc:format>image/svg+xml</dc:format>
        <dc:type
           rdf:resource="http://purl.org/dc/dcmitype/StillImage" />
        <dc:title />
      </cc:Work>
    </rdf:RDF>
  </metadata>
  <g
     inkscape:label="Layer 1"
     inkscape:groupmode="layer"
     id="layer1"
     transform="translate(0,-87)">
    <g
       transform="matrix(0.68641839,0,0,0.94828566,81.996396,15.967406)"
       id="g1686"
       style="opacity:0.396;fill:#000000">
      <path
         style="opacity:1;fill:#000000;fill-opacity:1;stroke:none;stroke-width:0.27986464;stroke-miterlimit:4;stroke-dasharray:none;stroke-opacity:1"
         d="m 148.93276,95.943803 c -9.4003,0 -22.26309,10.529287 -24.17293,28.744327 -0.46154,4.40186 -0.11829,9.16016 0.77192,14.03818 5.93732,-10.95693 15.66298,-17.007 23.40101,-17.007 7.73791,1e-5 17.46318,6.04992 23.40053,17.00654 0.89016,-4.87789 1.23345,-9.63599 0.77193,-14.03772 -1.90985,-18.21504 -14.77215,-28.744327 -24.17246,-28.744327 z"
         id="path1676"
         inkscape:connector-curvature="0" />
      <path
         inkscape:connector-curvature="0"
         style="opacity:1;fill:#000000;fill-opacity:1;stroke:none;stroke-width:1.5854739;stroke-miterlimit:4;stroke-dasharray:none;stroke-opacity:1"
         d="m 562.73242,33.802734 c 35.363,1.221612 82.58004,40.842736 89.68555,108.611326 10.64058,101.48353 -91.36133,252.96485 -91.36133,252.96485 0,0 -82.85878,141.93799 -103.30273,180.21875 -0.034,0.0639 -0.0676,0.12362 -0.10157,0.1875 -18.86119,35.33218 -39.55931,78.35602 -55.97265,123.3125 l 55.5039,63.20898 c 24.8791,-53.18534 52.17188,-93.75976 52.17188,-93.75976 0,0 82.85874,-141.938 103.30273,-180.21876 0.034,-0.0639 0.0675,-0.12362 0.10157,-0.1875 C 655.4736,408.12595 707.65115,288.68124 697.99805,196.61523 687.29136,94.500979 615.82711,35.032676 562.73242,33.802734 Z"
         transform="matrix(0.26458333,0,0,0.26458333,0,87)"
         id="path1678" />
      <path
         style="opacity:1;fill:#000000;fill-opacity:0;stroke:none;stroke-width:0.41948995;stroke-miterlimit:4;stroke-dasharray:none;stroke-opacity:1"
         d="m 148.62865,95.433077 c -9.05614,0.510704 -17.08771,5.990903 -22.96196,12.594373 -10.57499,11.99684 -14.68865,28.72514 -12.94372,44.42929 1.91145,17.79876 8.44463,34.7243 15.9488,50.84368 7.71129,16.357 17.25128,31.75209 26.17561,47.45574 3.95775,6.91629 8.00203,13.77881 12.22872,20.53336 3.52948,5.9728 6.76389,12.07249 9.68933,18.36167 5.14183,-5.8556 10.28313,-11.71168 15.42542,-17.56688 -6.29786,-17.41026 -15.0545,-33.78971 -24.37513,-49.74147 -6.2829,-10.83374 -12.41942,-21.75944 -18.90415,-32.47134 -8.84002,-14.12292 -16.61016,-29.11644 -21.02128,-45.20431 -2.67031,-9.78626 -3.57434,-20.63693 0.38929,-30.27072 3.2082,-8.07035 9.73463,-15.702343 18.5497,-17.664764 1.09897,-0.267322 2.3019,-0.05306 3.22822,-0.824756 -0.47727,-0.143096 -0.90887,-0.558141 -1.42885,-0.473873 z"
         id="path1680"
         inkscape:connector-curvature="0" />
      <path
         inkscape:connector-curvature="0"
         style="opacity:1;fill:#000000;fill-opacity:1;stroke:none;stroke-width:1.58547378;stroke-miterlimit:4;stroke-dasharray:none;stroke-opacity:1"
         d="m 562.73242,33.802734 c 7.08142,0.244627 14.63908,2.054948 22.25391,5.296875 0.24414,-0.48039 0.45521,-0.973955 0.64258,-1.474609 -7.84395,-2.360882 -15.54666,-3.652006 -22.89649,-3.822266 z m 10.20703,342.777346 c -7.20998,11.84879 -11.88281,18.79883 -11.88281,18.79883 0,0 -31.79278,54.46462 -60.85156,105.01757 16.72262,31.4699 34.63,62.30758 52.7832,93.00391 23.3652,-40.43019 49.39408,-85.83106 59.66992,-105.07227 0.034,-0.0639 0.0675,-0.12362 0.10157,-0.1875 3.94861,-7.39682 7.97721,-15.13437 12.03125,-23.15234 -17.38491,-29.41892 -34.92228,-58.76198 -51.85157,-88.4082 z"
         transform="matrix(0.26458333,0,0,0.26458333,0,87)"
         id="path1682" />
      <path
         inkscape:connector-curvature="0"
         style="opacity:1;fill:#000000;fill-opacity:1;stroke:none;stroke-width:1.5854739;stroke-miterlimit:4;stroke-dasharray:none;stroke-opacity:1"
         d="M 563.05664,33.832031 C 509.96195,35.061973 438.4977,94.530276 427.79102,196.64453 c -9.65311,92.066 42.52444,211.51071 85.23828,291.52539 0.034,0.0639 0.0675,0.12363 0.10156,0.1875 20.44399,38.28076 103.30273,180.21875 103.30273,180.21875 0,0 27.28725,40.56382 52.16407,93.74024 l 55.5039,-63.21094 c -16.41209,-44.9487 -37.10665,-87.96446 -55.96484,-123.29102 -0.034,-0.0639 -0.0675,-0.12362 -0.10156,-0.1875 C 647.5912,537.3462 564.73242,395.4082 564.73242,395.4082 c 0,0 -102.00191,-151.48131 -91.36133,-252.96484 7.10552,-67.768593 54.32255,-107.389717 89.68555,-108.611329 z"
         id="path1684"
         transform="matrix(0.26458333,0,0,0.26458333,0,87)" />
    </g>
    <g
       id="g1604"
       transform="matrix(0.68641839,0,0,0.94828566,79.350561,12.792404)">
      <path
         inkscape:connector-curvature="0"
         id="rect1528"
         d="m 148.93276,95.943803 c -9.4003,0 -22.26309,10.529287 -24.17293,28.744327 -0.46154,4.40186 -0.11829,9.16016 0.77192,14.03818 5.93732,-10.95693 15.66298,-17.007 23.40101,-17.007 7.73791,1e-5 17.46318,6.04992 23.40053,17.00654 0.89016,-4.87789 1.23345,-9.63599 0.77193,-14.03772 -1.90985,-18.21504 -14.77215,-28.744327 -24.17246,-28.744327 z"
         style="opacity:1;fill:#610000;fill-opacity:1;stroke:none;stroke-width:0.27986464;stroke-miterlimit:4;stroke-dasharray:none;stroke-opacity:1" />
      <path
         id="path1555"
         transform="matrix(0.26458333,0,0,0.26458333,0,87)"
         d="m 562.73242,33.802734 c 35.363,1.221612 82.58004,40.842736 89.68555,108.611326 10.64058,101.48353 -91.36133,252.96485 -91.36133,252.96485 0,0 -82.85878,141.93799 -103.30273,180.21875 -0.034,0.0639 -0.0676,0.12362 -0.10157,0.1875 -18.86119,35.33218 -39.55931,78.35602 -55.97265,123.3125 l 55.5039,63.20898 c 24.8791,-53.18534 52.17188,-93.75976 52.17188,-93.75976 0,0 82.85874,-141.938 103.30273,-180.21876 0.034,-0.0639 0.0675,-0.12362 0.10157,-0.1875 C 655.4736,408.12595 707.65115,288.68124 697.99805,196.61523 687.29136,94.500979 615.82711,35.032676 562.73242,33.802734 Z"
         style="opacity:1;fill:#980000;fill-opacity:1;stroke:none;stroke-width:1.5854739;stroke-miterlimit:4;stroke-dasharray:none;stroke-opacity:1"
         inkscape:connector-curvature="0" />
      <path
         inkscape:connector-curvature="0"
         id="path1584"
         d="m 148.62865,95.433077 c -9.05614,0.510704 -17.08771,5.990903 -22.96196,12.594373 -10.57499,11.99684 -14.68865,28.72514 -12.94372,44.42929 1.91145,17.79876 8.44463,34.7243 15.9488,50.84368 7.71129,16.357 17.25128,31.75209 26.17561,47.45574 3.95775,6.91629 8.00203,13.77881 12.22872,20.53336 3.52948,5.9728 6.76389,12.07249 9.68933,18.36167 5.14183,-5.8556 10.28313,-11.71168 15.42542,-17.56688 -6.29786,-17.41026 -15.0545,-33.78971 -24.37513,-49.74147 -6.2829,-10.83374 -12.41942,-21.75944 -18.90415,-32.47134 -8.84002,-14.12292 -16.61016,-29.11644 -21.02128,-45.20431 -2.67031,-9.78626 -3.57434,-20.63693 0.38929,-30.27072 3.2082,-8.07035 9.73463,-15.702343 18.5497,-17.664764 1.09897,-0.267322 2.3019,-0.05306 3.22822,-0.824756 -0.47727,-0.143096 -0.90887,-0.558141 -1.42885,-0.473873 z"
         style="opacity:1;fill:#000000;fill-opacity:0;stroke:none;stroke-width:0.41948995;stroke-miterlimit:4;stroke-dasharray:none;stroke-opacity:1" />
      <path
         id="path1588"
         transform="matrix(0.26458333,0,0,0.26458333,0,87)"
         d="m 562.73242,33.802734 c 7.08142,0.244627 14.63908,2.054948 22.25391,5.296875 0.24414,-0.48039 0.45521,-0.973955 0.64258,-1.474609 -7.84395,-2.360882 -15.54666,-3.652006 -22.89649,-3.822266 z m 10.20703,342.777346 c -7.20998,11.84879 -11.88281,18.79883 -11.88281,18.79883 0,0 -31.79278,54.46462 -60.85156,105.01757 16.72262,31.4699 34.63,62.30758 52.7832,93.00391 23.3652,-40.43019 49.39408,-85.83106 59.66992,-105.07227 0.034,-0.0639 0.0675,-0.12362 0.10157,-0.1875 3.94861,-7.39682 7.97721,-15.13437 12.03125,-23.15234 -17.38491,-29.41892 -34.92228,-58.76198 -51.85157,-88.4082 z"
         style="opacity:1;fill:#610000;fill-opacity:1;stroke:none;stroke-width:1.58547378;stroke-miterlimit:4;stroke-dasharray:none;stroke-opacity:1"
         inkscape:connector-curvature="0" />
      <path
         transform="matrix(0.26458333,0,0,0.26458333,0,87)"
         id="path1538"
         d="M 563.05664,33.832031 C 509.96195,35.061973 438.4977,94.530276 427.79102,196.64453 c -9.65311,92.066 42.52444,211.51071 85.23828,291.52539 0.034,0.0639 0.0675,0.12363 0.10156,0.1875 20.44399,38.28076 103.30273,180.21875 103.30273,180.21875 0,0 27.28725,40.56382 52.16407,93.74024 l 55.5039,-63.21094 c -16.41209,-44.9487 -37.10665,-87.96446 -55.96484,-123.29102 -0.034,-0.0639 -0.0675,-0.12362 -0.10156,-0.1875 C 647.5912,537.3462 564.73242,395.4082 564.73242,395.4082 c 0,0 -102.00191,-151.48131 -91.36133,-252.96484 7.10552,-67.768593 54.32255,-107.389717 89.68555,-108.611329 z"
         style="opacity:1;fill:#c10000;fill-opacity:1;stroke:none;stroke-width:1.5854739;stroke-miterlimit:4;stroke-dasharray:none;stroke-opacity:1"
         inkscape:connector-curvature="0" />
    </g>
    <g
       aria-label="R"
       style="font-style:normal;font-variant:normal;font-weight:normal;font-stretch:normal;font-size:12.69999981px;line-height:1.25;font-family:'Tamil MN';-inkscape-font-specification:'Tamil MN';text-align:center;letter-spacing:0px;word-spacing:0px;text-anchor:middle;fill:#000000;fill-opacity:1;stroke:none;stroke-width:0.26458332"
       id="text1608"
       transform="matrix(1.5726192,0,0,1.5726192,-48.683132,-105.06503)">
      <path
         inkscape:connector-curvature="0"
         d="M 32.742431,160.64051 H 48.58987 q 4.099664,0 7.20025,0.89573 3.100586,0.86127 5.167644,2.44601 2.067057,1.58475 3.100586,3.78961 1.067979,2.17041 1.067979,4.75423 0,2.13596 -0.826823,3.99631 -0.792372,1.86035 -2.273763,3.3762 -1.44694,1.48139 -3.513997,2.58382 -2.067058,1.06798 -4.547526,1.68809 l 16.639811,22.15197 H 61.681234 L 45.799343,184.85953 h -5.374349 v 21.46295 h -7.682563 z m 7.682563,21.91081 h 4.444173 q 2.583822,0 4.754232,-0.68902 2.204861,-0.68902 3.789605,-1.92925 1.619195,-1.27469 2.51492,-3.06614 0.895725,-1.79145 0.895725,-4.03076 0,-2.06706 -0.72347,-3.7896 -0.689019,-1.72255 -1.998156,-2.92834 -1.274685,-1.24023 -3.066135,-1.92925 -1.756998,-0.68902 -3.858507,-0.68902 h -6.752387 z"
         style="font-style:normal;font-variant:normal;font-weight:normal;font-stretch:normal;font-size:70.55555725px;font-family:'Tamil MN';-inkscape-font-specification:'Tamil MN';stroke-width:0.26458332"
         id="path1645" />
    </g>
    <g
       aria-label="EE"
       style="font-style:normal;font-weight:normal;font-size:12.69999981px;line-height:1.25;font-family:sans-serif;text-align:center;letter-spacing:0px;word-spacing:0px;text-anchor:middle;fill:#000000;fill-opacity:1;stroke:none;stroke-width:0.26458332"
       id="text1612"
       transform="matrix(1.5726192,0,0,1.5726192,-47.095631,-105.06503)">
      <path
         inkscape:connector-curvature="0"
         d="m 97.069821,173.0573 v 2.13321 H 79.731345 v 11.75742 h 11.608593 v 2.1332 H 79.731345 v 14.73399 h 17.338476 v 2.1332 H 74.1999 V 173.0573 Z"
         style="font-style:normal;font-variant:normal;font-weight:normal;font-stretch:normal;font-size:50.79999924px;font-family:'Tamil MN';-inkscape-font-specification:'Tamil MN';stroke-width:0.26458332"
         id="path1648" />
      <path
         inkscape:connector-curvature="0"
         d="m 126.43857,173.0573 v 2.13321 h -17.33848 v 11.75742 h 11.6086 v 2.1332 h -11.6086 v 14.73399 h 17.33848 v 2.1332 H 103.56865 V 173.0573 Z"
         style="font-style:normal;font-variant:normal;font-weight:normal;font-stretch:normal;font-size:50.79999924px;font-family:'Tamil MN';-inkscape-font-specification:'Tamil MN';stroke-width:0.26458332"
         id="path1650" />
    </g>
    <g
       aria-label="ES"
       style="font-style:normal;font-variant:normal;font-weight:normal;font-stretch:normal;font-size:12.69999981px;line-height:1.25;font-family:'Tamil MN';-inkscape-font-specification:'Tamil MN';text-align:center;letter-spacing:0px;word-spacing:0px;text-anchor:middle;fill:#000000;fill-opacity:1;stroke:none;stroke-width:0.26458332"
       id="text1616"
       transform="matrix(1.5726192,0,0,1.5726192,-74.12719,-105.06503)">
      <path
         inkscape:connector-curvature="0"
         d="m 206.63734,172.18305 v 2.1332 h -17.33847 v 11.75743 h 11.60859 v 2.1332 h -11.60859 v 14.73398 h 17.33847 v 2.13321 h -22.86992 v -32.89102 z"
         style="font-style:normal;font-variant:normal;font-weight:normal;font-stretch:normal;font-size:50.79999924px;font-family:'Tamil MN';-inkscape-font-specification:'Tamil MN';stroke-width:0.26458332"
         id="path1653" />
      <path
         inkscape:connector-curvature="0"
         d="m 223.9014,203.75942 q 1.21543,0 2.40606,-0.32246 1.19062,-0.34727 2.1332,-0.99219 0.94258,-0.66973 1.51309,-1.61231 0.57051,-0.96738 0.57051,-2.23242 0,-1.51308 -0.79375,-2.6789 -0.76895,-1.19063 -2.03399,-2.15801 -1.26504,-0.99219 -2.90215,-1.86035 -1.6123,-0.86817 -3.29902,-1.73633 -1.68672,-0.86816 -3.32383,-1.81074 -1.6123,-0.96739 -2.87734,-2.13321 -1.26504,-1.19062 -2.05879,-2.62929 -0.76895,-1.46348 -0.76895,-3.34864 0,-1.88515 0.69453,-3.49746 0.71934,-1.6123 2.0836,-2.77812 1.36426,-1.19063 3.34863,-1.86035 2.00918,-0.66973 4.58887,-0.66973 2.33164,0 4.16719,0.49609 1.83554,0.4961 3.2246,1.46348 1.38907,0.96738 2.35645,2.38125 0.96738,1.41387 1.5627,3.27422 l -2.82774,1.28984 q -0.49609,-1.51308 -1.26504,-2.75332 -0.76894,-1.26504 -1.83555,-2.158 -1.0666,-0.89297 -2.48046,-1.36426 -1.38907,-0.4961 -3.1502,-0.4961 -1.56269,0 -2.72851,0.44649 -1.16583,0.42168 -1.95958,1.14101 -0.76894,0.69453 -1.16582,1.5875 -0.37207,0.86817 -0.37207,1.78594 0,1.28984 0.79375,2.38125 0.79375,1.0666 2.1084,2.03399 1.31465,0.94257 2.97657,1.83554 1.68671,0.89297 3.42304,1.81074 1.73633,0.91778 3.39824,1.90997 1.68672,0.99218 3.00137,2.18281 1.31465,1.16582 2.1084,2.57969 0.79375,1.38906 0.79375,3.12539 0,1.95957 -0.74414,3.69589 -0.74414,1.71153 -2.23242,3.00137 -1.48828,1.26504 -3.6959,2.00918 -2.20762,0.74414 -5.13457,0.74414 -2.38125,0 -4.2416,-0.5209 -1.86035,-0.5209 -3.29903,-1.51308 -1.41386,-0.99219 -2.43086,-2.40606 -1.01699,-1.43867 -1.66191,-3.27422 l 2.95176,-1.21543 q 0.5209,1.61231 1.38906,2.87735 0.89297,1.26504 2.05879,2.15801 1.16582,0.86816 2.57969,1.33945 1.43867,0.47129 3.05097,0.47129 z"
         style="font-style:normal;font-variant:normal;font-weight:normal;font-stretch:normal;font-size:50.79999924px;font-family:'Tamil MN';-inkscape-font-specification:'Tamil MN';stroke-width:0.26458332"
         id="path1655" />
    </g>
  </g>
</svg>
